<svg width="42" height="42" viewBox="0 0 42 42" fill="none" xmlns="http://www.w3.org/2000/svg">
<g clip-path="url(#clip0_19213_17355)">
<path d="M21.0069 42C9.24415 42 6.07512 41.4049 3.33509 38.6649C0.581219 35.911 0 32.7558 0 21.0069C0 9.24415 0.595058 6.08896 3.33509 3.33509C6.07512 0.595058 9.24415 0 21.0069 0C32.7697 0 35.9387 0.595058 38.6787 3.33509C41.4326 6.08896 42.0138 9.24415 42.0138 21.0069C42.0138 32.7697 41.4326 35.911 38.6787 38.6787C35.9249 41.4049 32.7558 42 21.0069 42Z" fill="black"/>
<path d="M29.2409 20.9791C28.4382 20.9791 27.9123 20.4533 27.9123 19.6645C27.9123 18.9034 28.4382 18.3775 29.2409 18.3775H31.3305V20.9791H29.2409ZM33.088 16.8691H29.0333C27.3173 16.8691 26.141 17.99 26.141 19.6091C26.141 20.8823 26.8745 21.851 28.0369 22.1969L25.8227 25.5597H27.774L29.7667 22.5014H31.3305V25.5597H33.088V16.8691V16.8691ZM11.1677 19.1386V16.5231H14.572V23.9544H10.2959C10.7525 23.1656 11.1677 21.3113 11.1677 19.1386ZM16.371 14.8348H9.42405V19.2078C9.42405 21.4358 9.03657 23.1795 8.5107 23.9544H7.68039V27.9261H9.39637V25.5735H15.9005V27.9261H17.6165V23.9544H16.371V14.8348ZM21.6158 24.079L21.4636 23.9821L23.484 16.8691H19.3878L18.945 18.4467L21.3252 18.4328L19.7753 23.8576C19.4985 24.8401 20.1628 25.7673 21.256 25.7673C21.602 25.7673 21.9341 25.6842 22.3077 25.449L25.1031 23.5531L24.259 22.2938L21.6158 24.079ZM22.8059 15.2361C23.6778 15.2361 24.0376 14.9179 24.0376 14.1429C24.0376 13.3403 23.6639 13.022 22.8059 13.022C21.9618 13.022 21.5743 13.3403 21.5743 14.1429C21.5743 14.904 21.9341 15.2361 22.8059 15.2361Z" fill="white"/>
</g>
<defs>
<clipPath id="clip0_19213_17355">
<rect width="42" height="42" fill="white"/>
</clipPath>
</defs>
</svg>
