<svg width="149" height="70" viewBox="0 0 149 70" fill="none" xmlns="http://www.w3.org/2000/svg">
<path d="M34.5114 68.8929C15.4369 68.8929 10.5035 67.9473 6.27479 63.6343C2.02339 59.3674 1.09127 54.4316 1.09127 35.0115C1.09127 15.6606 2.02339 10.6787 6.27479 6.36573C10.4807 2.05272 15.4369 1.10708 34.5114 1.10708C53.5858 1.10708 58.5193 2.05272 62.7479 6.36573C66.9993 10.6557 67.9315 15.5914 67.9315 35.0115C67.9315 54.4316 66.9993 59.3674 62.7479 63.6573C58.5193 67.9703 53.5631 68.8929 34.5114 68.8929ZM34.5114 70C53.8359 70 59.0422 69.0082 63.5437 64.4415C68.0679 59.8517 69.0227 54.5931 69.0227 34.9885C69.0227 15.3839 68.0679 10.1483 63.5437 5.53542C59.0194 0.991763 53.8132 0 34.5114 0C15.1868 0 9.98056 0.991763 5.47908 5.55848C0.977595 10.1483 0 15.4069 0 35.0115C0 54.6161 0.95486 59.8517 5.47908 64.4646C9.98056 69.0082 15.1868 70 34.5114 70Z" fill="black"/>
<path d="M33.0337 59.0676C30.5101 57.1302 28.6913 54.2241 28.0775 50.8567H19.9612V15.3839C24.3035 17.598 27.4409 22.4415 27.7819 27.4695L29.0096 37.4333L28.4185 37.3641C27.1226 37.3641 25.9859 38.6096 25.9859 39.832C25.9859 40.9852 26.8498 41.9539 27.9866 42.2076L29.4643 42.5536C31.8969 37.8715 33.2837 33.2817 33.2837 28.7842C33.2837 24.7249 32.7608 20.6656 32.6699 16.514C32.6699 14.6689 33.3747 12.9852 34.4887 11.6705C35.6254 12.9852 36.3075 14.6689 36.3075 16.514C36.3075 20.6656 35.6936 24.7249 35.6936 28.7842C35.6936 33.2817 37.0805 37.8715 39.5131 42.5536L40.9908 42.2076C42.1276 41.9539 42.9915 40.9621 42.9915 39.832C42.9915 38.5865 41.8548 37.3641 40.5589 37.3641L39.945 37.4564L41.1727 27.4926C41.7866 22.4646 44.6511 17.598 48.9935 15.4069V50.8798H40.8999C40.2861 54.2241 38.5582 57.2455 35.9437 59.0906C35.3299 59.5289 34.807 60.0593 34.466 60.7743C34.1477 60.0593 33.6248 59.5289 33.0337 59.0676ZM23.8034 38.6096C24.1444 37.2949 25.0992 36.1417 26.3269 35.4267L25.3721 27.2158C25.031 24.6557 23.9852 22.3723 22.4165 20.5041V38.5865H23.8034V38.6096ZM27.8956 48.3888C27.8956 47.1434 28.0775 46.0132 28.3276 44.86L27.1908 44.5832C25.5312 44.0527 24.2353 42.7381 23.8034 41.0544H22.4165V48.3888H27.8956ZM33.2837 48.3888C33.2837 46.8896 32.147 45.575 30.6693 45.3905C30.4192 46.3592 30.2373 47.3279 30.2373 48.3888H33.2837ZM33.2837 50.8798H30.5783C31.0103 52.8172 31.9651 54.5931 33.2837 56.0923V50.8798ZM37.1032 43.1994C36.0574 41.262 35.1025 39.2323 34.4887 37.1104C33.8749 39.2323 32.92 41.262 31.8742 43.1994C32.92 43.4531 33.7839 44.1681 34.4887 44.9753C35.1935 44.1681 36.0574 43.4531 37.1032 43.1994ZM38.7628 48.3888C38.7628 47.3279 38.581 46.3592 38.3309 45.3905C36.8531 45.575 35.7164 46.8896 35.7164 48.3888H38.7628ZM38.4218 50.8798H35.7164V56.0923C37.035 54.57 37.9898 52.8172 38.4218 50.8798ZM46.5836 48.3888V41.0544H45.1968C44.7648 42.7381 43.4462 44.0527 41.8093 44.5832L40.6725 44.86C40.9226 46.0132 41.1045 47.1434 41.1045 48.3888H46.5836ZM46.5836 38.6096V20.5041C45.0149 22.3493 43.8781 24.6557 43.6281 27.2158L42.6732 35.4267C43.9009 36.1417 44.8557 37.2719 45.1968 38.6096H46.5836Z" fill="black"/>
<g clip-path="url(#clip0_19214_17362)">
<path d="M114.012 70C94.4069 70 89.1252 69.0082 84.5585 64.4415C79.9687 59.8517 79 54.5931 79 35.0115C79 15.4069 79.9918 10.1483 84.5585 5.55848C89.1252 0.991763 94.4069 0 114.012 0C133.616 0 138.898 0.991763 143.465 5.55848C148.054 10.1483 149.023 15.4069 149.023 35.0115C149.023 54.6161 148.054 59.8517 143.465 64.4646C138.875 69.0082 133.593 70 114.012 70Z" fill="black"/>
<path d="M127.735 34.9654C126.397 34.9654 125.521 34.089 125.521 32.7743C125.521 31.5058 126.397 30.6294 127.735 30.6294H131.218V34.9654H127.735ZM134.147 28.1154H127.389C124.529 28.1154 122.568 29.9836 122.568 32.6821C122.568 34.804 123.791 36.4185 125.728 36.9951L122.038 42.5997H125.29L128.611 37.5025H131.218V42.5997H134.147V28.1154V28.1154ZM97.613 31.8979V27.5387H103.287V39.9243H96.1599C96.921 38.6096 97.613 35.519 97.613 31.8979ZM106.285 24.7249H94.7069V32.0132C94.7069 35.7266 94.0611 38.6327 93.1846 39.9243H91.8008V46.5437H94.6607V42.6228H105.501V46.5437H108.361V39.9243H106.285V24.7249ZM115.026 40.1318L114.773 39.9704L118.14 28.1154H111.313L110.575 30.7447L114.542 30.7216L111.959 39.7628C111.498 41.4004 112.605 42.9457 114.427 42.9457C115.003 42.9457 115.557 42.8073 116.18 42.4152L120.839 39.2554L119.432 37.1565L115.026 40.1318ZM117.01 25.3938C118.463 25.3938 119.063 24.8633 119.063 23.5717C119.063 22.234 118.44 21.7035 117.01 21.7035C115.603 21.7035 114.957 22.234 114.957 23.5717C114.957 24.8402 115.557 25.3938 117.01 25.3938Z" fill="white"/>
</g>
<defs>
<clipPath id="clip0_19214_17362">
<rect width="70" height="70" fill="white" transform="translate(79)"/>
</clipPath>
</defs>
</svg>
